<?xml version="1.0" encoding="UTF-8" standalone="no"?>
<!-- Created with Inkscape (http://www.inkscape.org/) -->

<svg
   width="94.43045mm"
   height="12.047452mm"
   viewBox="0 0 94.43045 12.047452"
   version="1.1"
   id="svg1"
   xmlns="http://www.w3.org/2000/svg"
   xmlns:svg="http://www.w3.org/2000/svg">
  <defs
     id="defs1" />
  <g
     id="layer1"
     transform="translate(-55.799099,-159.22565)">
    <g
       id="g1"
       transform="matrix(0.40075769,0,0,0.40075769,49.356278,99.931331)">
      <path
         style="fill:none;stroke:#ffffff;stroke-width:1.5875;stroke-linecap:round;stroke-linejoin:miter;stroke-dasharray:none;stroke-opacity:1"
         d="M 23.342529,160.42144 C 23.342529,160.42144 28.915019,158.6398 31.701259,158.6398 34.487499,158.6398 40.059989,160.42144 40.059989,160.42144"
         id="path3-9-5" />
      <path
         style="fill:none;stroke:#ffffff;stroke-width:1.5875;stroke-linecap:round;stroke-linejoin:miter;stroke-dasharray:none;stroke-opacity:1"
         d="M 20.687589,156.23373 C 20.687589,156.23373 28.030039,153.84428 31.701259,153.84428 35.372479,153.84428 42.714929,156.23373 42.714929,156.23373"
         id="path3-9-4-5" />
      <path
         style="fill:none;stroke:#ffffff;stroke-width:1.5875;stroke-linecap:round;stroke-linejoin:miter;stroke-dasharray:none;stroke-opacity:1"
         d="M 16.870349,152.25363 C 16.870349,152.25363 26.534529,148.74928 31.701259,148.74928 36.867989,148.74928 46.532169,152.25363 46.532169,152.25363"
         id="path5" />
      <path
         style="fill:none;stroke:#ffffff;stroke-width:1.5875;stroke-linecap:round;stroke-linejoin:miter;stroke-dasharray:none;stroke-opacity:1"
         d="M 24.673689,164.79173 C 24.673689,164.79173 29.358739,163.25278 31.701259,163.25278 34.043779,163.25278 38.728829,164.79173 38.728829,164.79173"
         id="path3-9-5-5" />
      <path
         style="fill:none;stroke:#ffffff;stroke-width:1.5875;stroke-linecap:round;stroke-linejoin:miter;stroke-dasharray:none;stroke-opacity:1"
         d="M 24.673689,169.5554 C 24.673689,169.5554 29.358739,168.01645 31.701259,168.01645 34.043779,168.01645 38.728829,169.5554 38.728829,169.5554"
         id="path3-9-5-5-9" />
      <path
         style="fill:none;stroke:#ffffff;stroke-width:1.5875;stroke-linecap:round;stroke-linejoin:miter;stroke-dasharray:none;stroke-opacity:1"
         d="M 24.550059,174.31907 C 24.550059,174.31907 29.235109,172.78012 31.577629,172.78012 33.920149,172.78012 38.605199,174.31907 38.605199,174.31907"
         id="path3-9-5-5-9-9" />
    </g>
    <path
       style="font-weight:100;font-size:8.46667px;font-family:Fenice;-inkscape-font-specification:'Fenice Thin';fill:#f7ffff;stroke-width:35.7188;stroke-linecap:round"
       d="M 77.881106,169.44986 H 72.889987 V 169.25614 H 73.50533 V 162.93178 H 72.867196 V 162.72666 H 77.789944 V 164.85757 H 77.573434 L 77.299948,163.90037 Q 77.220181,163.61549 77.106229,163.38759 77.003672,163.14829 76.889719,163.07992 76.787162,163.00015 76.593443,162.96596 76.411119,162.93178 76.228795,162.93178 H 74.485322 V 165.83757 H 75.134851 Q 75.248803,165.83757 75.294384,165.83757 75.408337,165.83757 75.499499,165.81478 75.590661,165.78059 75.693218,165.68943 75.909728,165.49571 76.00089,165.13106 L 76.160423,164.52711 H 76.365538 V 167.39871 H 76.171819 L 76.057866,166.99988 Q 75.943914,166.60105 75.852752,166.41872 75.772985,166.225 75.704613,166.16803 75.556475,166.05408 75.351361,166.05408 H 74.485322 V 169.25614 H 76.057866 Q 76.650419,169.25614 76.866929,169.06242 77.083438,168.8687 77.334134,168.13941 77.425296,167.85452 77.527853,167.56964 77.562039,167.46709 77.60762,167.205 L 77.653201,166.98849 H 77.881106 Z M 80.741307,162.93178 H 80.125963 V 169.25614 H 80.695726 V 169.44986 H 78.462257 V 169.25614 H 79.077601 V 162.93178 H 78.496443 V 162.72666 H 80.741307 Z M 86.940321,167.60383 86.928925,167.76336 Q 86.928925,168.49266 86.43893,169.03963 85.948934,169.5866 85.231033,169.5866 84.319413,169.5866 83.715465,168.83452 83.122912,168.07103 83.122912,166.92011 83.122912,165.86036 83.70407,165.09687 84.296623,164.33339 85.162662,164.33339 85.926143,164.33339 86.450325,164.93734 86.940321,165.5071 86.940321,166.28198 86.940321,166.40733 86.928925,166.4757 H 84.080113 V 167.05686 Q 84.080113,168.09382 84.308018,168.6408 84.604295,169.3473 85.299405,169.3473 85.914748,169.3473 86.336372,168.80033 86.712416,168.31033 86.712416,167.74057 L 86.723811,167.60383 Z M 85.971724,166.25919 85.960329,165.72361 Q 85.960329,165.24501 85.76661,164.92595 85.538705,164.5499 85.117081,164.5499 84.763828,164.5499 84.501737,164.88036 84.239647,165.21083 84.171275,165.64385 L 84.080113,166.25919 Z M 91.897251,169.44986 H 89.994245 V 169.25614 H 90.575402 V 165.43873 Q 90.575402,165.11966 90.381683,164.90316 90.199359,164.67525 89.914478,164.67525 89.356111,164.67525 89.09402,165.23362 88.843325,165.78059 88.843325,166.57826 V 169.25614 H 89.458668 V 169.44986 H 87.464499 V 169.25614 H 88.000076 V 164.69804 H 87.464499 V 164.49293 H 88.797744 V 165.35897 Q 88.911696,164.93734 89.31053,164.67525 89.709364,164.40176 90.096802,164.40176 90.723541,164.40176 91.042608,164.68665 91.430046,165.0285 91.430046,165.78059 V 169.25614 H 91.897251 Z M 96.79721,169.66637 Q 96.79721,170.41846 96.147681,170.86287 95.543733,171.2731 94.609322,171.2731 93.834445,171.2731 93.298869,171.0338 92.637944,170.73752 92.637944,170.17916 92.637944,169.92846 92.831663,169.70056 93.025383,169.48405 93.321659,169.37009 92.922825,169.30172 92.660735,169.03963 92.410039,168.77754 92.410039,168.37871 92.410039,167.87732 92.740501,167.48988 93.082359,167.09104 93.458402,167.09104 93.002592,166.62384 93.002592,165.94012 93.002592,165.2678 93.526774,164.81199 94.06235,164.34479 94.746065,164.34479 95.201875,164.34479 95.600709,164.52711 H 96.717443 V 164.73223 H 95.953962 L 96.067914,164.84618 Q 96.284424,165.06269 96.398376,165.33617 96.512329,165.60966 96.512329,165.9971 96.512329,166.27059 96.466748,166.45291 96.421167,166.62384 96.250238,166.88593 96.090705,167.14802 95.703266,167.36453 95.236061,167.62662 94.75746,167.62662 94.415603,167.62662 94.119326,167.52406 93.82305,167.42151 93.58375,167.25058 93.298869,167.30755 93.093754,167.48988 92.88864,167.6722 92.88864,167.93429 92.88864,168.33313 93.321659,168.49266 93.629331,168.60661 94.119326,168.60661 94.233279,168.60661 94.324441,168.60661 94.415603,168.60661 94.49537,168.59522 L 94.711879,168.60661 H 94.985365 95.144899 Q 95.737452,168.60661 96.056519,168.70917 96.79721,168.94847 96.79721,169.66637 Z M 95.566523,165.96291 Q 95.566523,165.31338 95.452571,165.00571 95.270247,164.52711 94.780251,164.52711 94.30165,164.52711 94.107931,165.01711 93.971188,165.37036 93.971188,165.9971 93.971188,166.66942 94.073745,166.9543 94.244674,167.4329 94.73467,167.4329 95.293037,167.4329 95.463966,166.9429 95.566523,166.64663 95.566523,165.96291 Z M 96.330005,170.0766 Q 96.330005,169.62079 95.589314,169.50684 95.281642,169.46125 94.848622,169.46125 L 93.868631,169.43846 H 93.652121 Q 93.526774,169.50684 93.378635,169.70056 93.196311,169.93986 93.196311,170.15637 93.196311,170.62357 93.674912,170.87427 94.073745,171.07938 94.654903,171.07938 95.338618,171.07938 95.771638,170.87427 96.330005,170.61218 96.330005,170.0766 Z M 98.677429,163.34201 Q 98.677429,163.58131 98.5065,163.74084 98.346967,163.88898 98.119062,163.88898 97.913947,163.88898 97.743018,163.72944 97.57209,163.56991 97.57209,163.3534 97.57209,163.13689 97.731623,162.96596 97.891157,162.79503 98.107666,162.79503 98.335571,162.79503 98.5065,162.95457 98.677429,163.1141 98.677429,163.34201 Z M 99.121844,169.44986 H 97.241628 V 169.25614 H 97.765809 V 164.69804 H 97.275813 V 164.49293 H 98.654638 V 169.25614 H 99.121844 Z M 104.07878,169.44986 H 102.17577 V 169.25614 H 102.75693 V 165.43873 Q 102.75693,165.11966 102.56321,164.90316 102.38089,164.67525 102.09601,164.67525 101.53764,164.67525 101.27555,165.23362 101.02485,165.78059 101.02485,166.57826 V 169.25614 H 101.6402 V 169.44986 H 99.646028 V 169.25614 H 100.18161 V 164.69804 H 99.646028 V 164.49293 H 100.97927 V 165.35897 Q 101.09323,164.93734 101.49206,164.67525 101.89089,164.40176 102.27833,164.40176 102.90507,164.40176 103.22414,164.68665 103.61158,165.0285 103.61158,165.78059 V 169.25614 H 104.07878 Z M 108.43177,167.60383 108.42037,167.76336 Q 108.42037,168.49266 107.93038,169.03963 107.44038,169.5866 106.72248,169.5866 105.81086,169.5866 105.20691,168.83452 104.61436,168.07103 104.61436,166.92011 104.61436,165.86036 105.19552,165.09687 105.78807,164.33339 106.65411,164.33339 107.41759,164.33339 107.94177,164.93734 108.43177,165.5071 108.43177,166.28198 108.43177,166.40733 108.42037,166.4757 H 105.57156 V 167.05686 Q 105.57156,168.09382 105.79946,168.6408 106.09574,169.3473 106.79085,169.3473 107.40619,169.3473 107.82782,168.80033 108.20386,168.31033 108.20386,167.74057 L 108.21526,167.60383 Z M 107.46317,166.25919 107.45177,165.72361 Q 107.45177,165.24501 107.25806,164.92595 107.03015,164.5499 106.60853,164.5499 106.25527,164.5499 105.99318,164.88036 105.73109,165.21083 105.66272,165.64385 L 105.57156,166.25919 Z M 112.78475,167.60383 112.77335,167.76336 Q 112.77335,168.49266 112.28336,169.03963 111.79336,169.5866 111.07546,169.5866 110.16384,169.5866 109.55989,168.83452 108.96734,168.07103 108.96734,166.92011 108.96734,165.86036 109.5485,165.09687 110.14105,164.33339 111.00709,164.33339 111.77057,164.33339 112.29475,164.93734 112.78475,165.5071 112.78475,166.28198 112.78475,166.40733 112.77335,166.4757 H 109.92454 V 167.05686 Q 109.92454,168.09382 110.15245,168.6408 110.44872,169.3473 111.14383,169.3473 111.75918,169.3473 112.1808,168.80033 112.55684,168.31033 112.55684,167.74057 L 112.56824,167.60383 Z M 111.81615,166.25919 111.80476,165.72361 Q 111.80476,165.24501 111.61104,164.92595 111.38313,164.5499 110.96151,164.5499 110.60826,164.5499 110.34617,164.88036 110.08408,165.21083 110.0157,165.64385 L 109.92454,166.25919 Z M 116.47681,166.43012 H 116.2603 L 115.98681,165.59827 Q 115.83867,165.14246 115.75891,164.99432 115.63356,164.76641 115.48542,164.76641 115.43984,164.76641 115.34868,164.81199 115.00682,165.00571 114.8245,165.45013 114.64217,165.88315 114.64217,166.9543 114.64217,167.205 114.64217,167.33034 V 169.25614 H 115.31449 V 169.44986 H 113.25195 V 169.25614 H 113.76474 V 164.69804 H 113.22916 V 164.49293 H 114.5624 V 165.52989 Q 114.61938,165.17664 114.93845,164.85757 115.33728,164.45874 115.85007,164.45874 116.14634,164.45874 116.47681,164.62967 Z M 118.4026,163.34201 Q 118.4026,163.58131 118.23168,163.74084 118.07214,163.88898 117.84424,163.88898 117.63912,163.88898 117.46819,163.72944 117.29727,163.56991 117.29727,163.3534 117.29727,163.13689 117.4568,162.96596 117.61633,162.79503 117.83284,162.79503 118.06075,162.79503 118.23168,162.95457 118.4026,163.1141 118.4026,163.34201 Z M 118.84702,169.44986 H 116.9668 V 169.25614 H 117.49098 V 164.69804 H 117.00099 V 164.49293 H 118.37981 V 169.25614 H 118.84702 Z M 123.80396,169.44986 H 121.90095 V 169.25614 H 122.48211 V 165.43873 Q 122.48211,165.11966 122.28839,164.90316 122.10607,164.67525 121.82118,164.67525 121.26282,164.67525 121.00073,165.23362 120.75003,165.78059 120.75003,166.57826 V 169.25614 H 121.36537 V 169.44986 H 119.37121 V 169.25614 H 119.90678 V 164.69804 H 119.37121 V 164.49293 H 120.70445 V 165.35897 Q 120.8184,164.93734 121.21724,164.67525 121.61607,164.40176 122.00351,164.40176 122.63025,164.40176 122.94931,164.68665 123.33675,165.0285 123.33675,165.78059 V 169.25614 H 123.80396 Z M 128.70391,169.66637 Q 128.70391,170.41846 128.05438,170.86287 127.45044,171.2731 126.51603,171.2731 125.74115,171.2731 125.20557,171.0338 124.54465,170.73752 124.54465,170.17916 124.54465,169.92846 124.73837,169.70056 124.93209,169.48405 125.22836,169.37009 124.82953,169.30172 124.56744,169.03963 124.31674,168.77754 124.31674,168.37871 124.31674,167.87732 124.64721,167.48988 124.98906,167.09104 125.36511,167.09104 124.9093,166.62384 124.9093,165.94012 124.9093,165.2678 125.43348,164.81199 125.96905,164.34479 126.65277,164.34479 127.10858,164.34479 127.50741,164.52711 H 128.62415 V 164.73223 H 127.86067 L 127.97462,164.84618 Q 128.19113,165.06269 128.30508,165.33617 128.41903,165.60966 128.41903,165.9971 128.41903,166.27059 128.37345,166.45291 128.32787,166.62384 128.15694,166.88593 127.99741,167.14802 127.60997,167.36453 127.14276,167.62662 126.66416,167.62662 126.32231,167.62662 126.02603,167.52406 125.72975,167.42151 125.49045,167.25058 125.20557,167.30755 125.00046,167.48988 124.79534,167.6722 124.79534,167.93429 124.79534,168.33313 125.22836,168.49266 125.53603,168.60661 126.02603,168.60661 126.13998,168.60661 126.23114,168.60661 126.32231,168.60661 126.40207,168.59522 L 126.61858,168.60661 H 126.89207 127.0516 Q 127.64416,168.60661 127.96322,168.70917 128.70391,168.94847 128.70391,169.66637 Z M 127.47323,165.96291 Q 127.47323,165.31338 127.35927,165.00571 127.17695,164.52711 126.68695,164.52711 126.20835,164.52711 126.01464,165.01711 125.87789,165.37036 125.87789,165.9971 125.87789,166.66942 125.98045,166.9543 126.15138,167.4329 126.64137,167.4329 127.19974,167.4329 127.37067,166.9429 127.47323,166.64663 127.47323,165.96291 Z M 128.23671,170.0766 Q 128.23671,169.62079 127.49602,169.50684 127.18835,169.46125 126.75533,169.46125 L 125.77533,169.43846 H 125.55883 Q 125.43348,169.50684 125.28534,169.70056 125.10302,169.93986 125.10302,170.15637 125.10302,170.62357 125.58162,170.87427 125.98045,171.07938 126.56161,171.07938 127.24532,171.07938 127.67834,170.87427 128.23671,170.61218 128.23671,170.0766 Z M 136.85152,169.42707 H 135.33596 L 134.9941,168.90289 Q 134.68643,169.23335 134.18504,169.42707 133.69504,169.62079 133.20504,169.62079 132.3504,169.62079 131.65529,169.05103 130.97158,168.48126 130.97158,167.63802 130.97158,166.85174 131.74645,166.13384 132.3504,165.57547 132.69226,165.5185 132.6011,165.45013 132.38459,164.98292 132.1111,164.40176 132.1111,164.01433 132.1111,163.39898 132.54412,162.96596 132.98853,162.52155 133.59248,162.52155 134.29899,162.52155 134.69782,162.81782 135.09666,163.1141 135.09666,163.64968 135.09666,164.10549 134.76619,164.45874 134.5155,164.73223 134.0255,164.99432 L 133.58109,165.24501 135.44991,167.93429 Q 135.56386,167.6836 135.64363,167.46709 135.72339,167.23918 135.76898,166.98849 135.82595,166.73779 135.86014,166.52128 135.89432,166.30477 135.89432,166.07687 H 134.97131 V 165.84896 H 136.61222 V 166.08826 H 136.09944 Q 136.09944,166.35035 136.07665,166.52128 136.05386,166.68081 135.99688,166.9543 135.9399,167.22779 135.87153,167.4443 135.80316,167.64941 135.57526,168.09382 L 136.31595,169.23335 H 136.85152 Z M 134.2648,163.49014 Q 134.18504,162.69248 133.5469,162.69248 133.27342,162.69248 133.04551,162.94317 132.81761,163.19387 132.81761,163.42177 132.81761,163.62689 132.88598,163.90037 132.95435,164.16246 133.10249,164.42455 L 133.45574,165.0399 Q 133.85457,164.91455 134.05969,164.57269 134.2762,164.21944 134.2762,163.74084 134.2762,163.56991 134.2648,163.49014 Z M 134.86875,168.72056 132.81761,165.70082 Q 132.3504,165.9971 132.13389,166.31617 131.8832,166.68081 131.8832,167.205 131.8832,167.27337 131.8832,167.34174 131.90599,167.4443 131.90599,167.48988 131.97436,167.99127 132.3504,168.53824 132.81761,169.21056 133.41016,169.26754 133.47853,169.27893 133.5469,169.27893 133.61527,169.27893 133.68364,169.27893 134.04829,169.27893 134.31038,169.16498 134.58387,169.03963 134.86875,168.72056 Z M 144.04193,169.14219 Q 143.72286,169.32451 143.25566,169.44986 142.79985,169.57521 142.29845,169.57521 140.81707,169.57521 139.99661,168.48126 139.25592,167.50127 139.25592,166.01989 139.25592,164.5613 139.98522,163.6041 140.80568,162.52155 142.26427,162.52155 142.76566,162.52155 143.18728,162.6355 143.6203,162.73806 143.97356,162.93178 V 164.8006 H 143.77984 L 143.57472,164.17386 Q 143.34682,163.44456 143.22147,163.26224 142.86822,162.72666 142.13892,162.72666 141.05637,162.72666 140.63475,163.8434 140.34987,164.59548 140.34987,166.06547 140.34987,167.45569 140.57777,168.13941 140.93102,169.19916 141.89962,169.32451 141.97939,169.33591 142.04776,169.33591 142.10474,169.33591 142.12753,169.33591 142.86822,169.33591 143.30124,168.60661 143.58612,168.11662 143.76844,167.21639 L 143.81402,166.97709 H 144.04193 Z M 148.74817,166.90872 Q 148.74817,168.01406 148.14423,168.80033 147.55167,169.57521 146.62866,169.57521 145.61448,169.57521 145.03332,168.70917 144.50914,167.93429 144.50914,166.82895 144.50914,165.84896 144.99914,165.14246 145.59169,164.29921 146.62866,164.29921 147.66563,164.29921 148.25818,165.19943 148.74817,165.95152 148.74817,166.90872 Z M 147.734,166.64663 Q 147.734,165.68943 147.56307,165.22222 147.30098,164.50432 146.61726,164.50432 145.85378,164.50432 145.61448,165.38176 145.48913,165.84896 145.48913,167.06825 145.48913,168.1622 145.70564,168.68638 145.99052,169.37009 146.70842,169.37009 147.39214,169.37009 147.60865,168.43568 147.734,167.88871 147.734,166.64663 Z M 149.71676,169.57521 Q 149.47746,169.57521 149.34072,169.42707 149.20397,169.27893 149.20397,169.06242 149.20397,168.84591 149.32932,168.69777 149.46606,168.54963 149.71676,168.54963 149.96745,168.54963 150.0928,168.69777 150.22955,168.84591 150.22955,169.06242 150.22955,169.27893 150.0928,169.42707 149.96745,169.57521 149.71676,169.57521 Z"
       id="text1"
       aria-label="EI engineering &amp; Co." />
  </g>
</svg>
